<mxfile host="Electron" modified="2023-04-17T18:24:05.554Z" agent="Mozilla/5.0 (Windows NT 10.0; Win64; x64) AppleWebKit/537.36 (KHTML, like Gecko) draw.io/21.1.2 Chrome/106.0.5249.199 Electron/21.4.3 Safari/537.36" etag="lrw9waMQG3tnXT7GxJK7" version="21.1.2" type="device">
  <diagram id="EMrtGi0U3tdq9u1__j4z" name="Page-1">
    <mxGraphModel dx="4883" dy="774" grid="0" gridSize="10" guides="1" tooltips="1" connect="1" arrows="1" fold="1" page="1" pageScale="1" pageWidth="850" pageHeight="1100" math="0" shadow="0">
      <root>
        <mxCell id="0" />
        <mxCell id="1" parent="0" />
        <mxCell id="ZRSunYi8uTQ0CrSBALGP-48" style="edgeStyle=orthogonalEdgeStyle;rounded=0;orthogonalLoop=1;jettySize=auto;html=1;entryX=0;entryY=0.848;entryDx=0;entryDy=0;entryPerimeter=0;" edge="1" parent="1" source="ZRSunYi8uTQ0CrSBALGP-24" target="ZRSunYi8uTQ0CrSBALGP-45">
          <mxGeometry relative="1" as="geometry">
            <Array as="points">
              <mxPoint x="-1240" y="1510" />
              <mxPoint x="-1240" y="2160" />
            </Array>
          </mxGeometry>
        </mxCell>
        <mxCell id="ZRSunYi8uTQ0CrSBALGP-59" style="edgeStyle=orthogonalEdgeStyle;rounded=0;orthogonalLoop=1;jettySize=auto;html=1;exitX=1;exitY=0.25;exitDx=0;exitDy=0;entryX=0.75;entryY=0;entryDx=0;entryDy=0;" edge="1" parent="1" source="ZRSunYi8uTQ0CrSBALGP-24" target="ZRSunYi8uTQ0CrSBALGP-25">
          <mxGeometry relative="1" as="geometry">
            <Array as="points">
              <mxPoint x="-572" y="1505" />
            </Array>
          </mxGeometry>
        </mxCell>
        <mxCell id="ZRSunYi8uTQ0CrSBALGP-24" value="&lt;b&gt;&lt;font face=&quot;Verdana&quot;&gt;Service provider&lt;/font&gt;&lt;/b&gt;" style="rounded=0;whiteSpace=wrap;html=1;" vertex="1" parent="1">
          <mxGeometry x="-1052" y="1488" width="136" height="68" as="geometry" />
        </mxCell>
        <mxCell id="ZRSunYi8uTQ0CrSBALGP-44" style="edgeStyle=orthogonalEdgeStyle;rounded=0;orthogonalLoop=1;jettySize=auto;html=1;exitX=0.5;exitY=0;exitDx=0;exitDy=0;entryX=1;entryY=0.75;entryDx=0;entryDy=0;" edge="1" parent="1" source="ZRSunYi8uTQ0CrSBALGP-25" target="ZRSunYi8uTQ0CrSBALGP-24">
          <mxGeometry relative="1" as="geometry" />
        </mxCell>
        <mxCell id="ZRSunYi8uTQ0CrSBALGP-55" style="edgeStyle=orthogonalEdgeStyle;rounded=0;orthogonalLoop=1;jettySize=auto;html=1;exitX=0.5;exitY=1;exitDx=0;exitDy=0;" edge="1" parent="1" source="ZRSunYi8uTQ0CrSBALGP-25">
          <mxGeometry relative="1" as="geometry">
            <mxPoint x="-633.6666666666665" y="1863.666666666667" as="targetPoint" />
          </mxGeometry>
        </mxCell>
        <mxCell id="ZRSunYi8uTQ0CrSBALGP-62" style="edgeStyle=orthogonalEdgeStyle;rounded=0;orthogonalLoop=1;jettySize=auto;html=1;exitX=1;exitY=0.75;exitDx=0;exitDy=0;" edge="1" parent="1" source="ZRSunYi8uTQ0CrSBALGP-25" target="ZRSunYi8uTQ0CrSBALGP-60">
          <mxGeometry relative="1" as="geometry">
            <Array as="points">
              <mxPoint x="-512" y="1699" />
            </Array>
          </mxGeometry>
        </mxCell>
        <mxCell id="ZRSunYi8uTQ0CrSBALGP-72" style="edgeStyle=orthogonalEdgeStyle;rounded=0;orthogonalLoop=1;jettySize=auto;html=1;exitX=1;exitY=0;exitDx=0;exitDy=0;entryX=0;entryY=0.132;entryDx=0;entryDy=0;entryPerimeter=0;" edge="1" parent="1" source="ZRSunYi8uTQ0CrSBALGP-25" target="ZRSunYi8uTQ0CrSBALGP-69">
          <mxGeometry relative="1" as="geometry" />
        </mxCell>
        <mxCell id="ZRSunYi8uTQ0CrSBALGP-25" value="&lt;font style=&quot;font-size: 18px;&quot;&gt;&lt;b&gt;&lt;br&gt;&lt;br&gt;Create Account&lt;/b&gt;&lt;/font&gt;" style="rounded=1;whiteSpace=wrap;html=1;arcSize=10;" vertex="1" parent="1">
          <mxGeometry x="-754" y="1596" width="242" height="178" as="geometry" />
        </mxCell>
        <mxCell id="ZRSunYi8uTQ0CrSBALGP-26" value="" style="endArrow=none;html=1;rounded=0;" edge="1" parent="1">
          <mxGeometry width="50" height="50" relative="1" as="geometry">
            <mxPoint x="-754" y="1654" as="sourcePoint" />
            <mxPoint x="-754" y="1653" as="targetPoint" />
            <Array as="points">
              <mxPoint x="-511" y="1655" />
            </Array>
          </mxGeometry>
        </mxCell>
        <mxCell id="ZRSunYi8uTQ0CrSBALGP-27" value="&lt;b&gt;&lt;font style=&quot;font-size: 18px;&quot;&gt;1&lt;/font&gt;&lt;/b&gt;" style="text;html=1;strokeColor=none;fillColor=none;align=center;verticalAlign=middle;whiteSpace=wrap;rounded=0;" vertex="1" parent="1">
          <mxGeometry x="-663" y="1610" width="60" height="30" as="geometry" />
        </mxCell>
        <mxCell id="ZRSunYi8uTQ0CrSBALGP-65" style="edgeStyle=orthogonalEdgeStyle;rounded=0;orthogonalLoop=1;jettySize=auto;html=1;exitX=0;exitY=0.75;exitDx=0;exitDy=0;" edge="1" parent="1" source="ZRSunYi8uTQ0CrSBALGP-34" target="ZRSunYi8uTQ0CrSBALGP-60">
          <mxGeometry relative="1" as="geometry">
            <Array as="points">
              <mxPoint x="-175" y="1698" />
            </Array>
          </mxGeometry>
        </mxCell>
        <mxCell id="ZRSunYi8uTQ0CrSBALGP-34" value="&lt;font style=&quot;font-size: 18px;&quot;&gt;&lt;b&gt;&lt;br&gt;&lt;br&gt;Login&lt;/b&gt;&lt;/font&gt;" style="rounded=1;whiteSpace=wrap;html=1;arcSize=10;" vertex="1" parent="1">
          <mxGeometry x="-175" y="1596" width="242" height="178" as="geometry" />
        </mxCell>
        <mxCell id="ZRSunYi8uTQ0CrSBALGP-38" value="" style="endArrow=none;html=1;rounded=0;" edge="1" parent="1">
          <mxGeometry width="50" height="50" relative="1" as="geometry">
            <mxPoint x="-175.5" y="1665" as="sourcePoint" />
            <mxPoint x="-175.5" y="1664" as="targetPoint" />
            <Array as="points">
              <mxPoint x="67.5" y="1666" />
            </Array>
          </mxGeometry>
        </mxCell>
        <mxCell id="ZRSunYi8uTQ0CrSBALGP-39" value="&lt;b&gt;&lt;font style=&quot;font-size: 18px;&quot;&gt;2&lt;/font&gt;&lt;/b&gt;" style="text;html=1;strokeColor=none;fillColor=none;align=center;verticalAlign=middle;whiteSpace=wrap;rounded=0;" vertex="1" parent="1">
          <mxGeometry x="-74" y="1620" width="60" height="30" as="geometry" />
        </mxCell>
        <mxCell id="ZRSunYi8uTQ0CrSBALGP-42" value="Service provider details" style="text;html=1;strokeColor=none;fillColor=none;align=center;verticalAlign=middle;whiteSpace=wrap;rounded=0;" vertex="1" parent="1">
          <mxGeometry x="-834" y="1471" width="135" height="30" as="geometry" />
        </mxCell>
        <mxCell id="ZRSunYi8uTQ0CrSBALGP-51" style="edgeStyle=orthogonalEdgeStyle;rounded=0;orthogonalLoop=1;jettySize=auto;html=1;exitX=0;exitY=0.5;exitDx=0;exitDy=0;entryX=0.004;entryY=0.796;entryDx=0;entryDy=0;entryPerimeter=0;" edge="1" parent="1" source="ZRSunYi8uTQ0CrSBALGP-53" target="ZRSunYi8uTQ0CrSBALGP-24">
          <mxGeometry relative="1" as="geometry">
            <Array as="points">
              <mxPoint x="-712" y="1902" />
              <mxPoint x="-1189" y="1902" />
              <mxPoint x="-1189" y="1542" />
              <mxPoint x="-1051" y="1542" />
            </Array>
          </mxGeometry>
        </mxCell>
        <mxCell id="ZRSunYi8uTQ0CrSBALGP-54" style="edgeStyle=orthogonalEdgeStyle;rounded=0;orthogonalLoop=1;jettySize=auto;html=1;exitX=0.5;exitY=0;exitDx=0;exitDy=0;entryX=0.5;entryY=1;entryDx=0;entryDy=0;" edge="1" parent="1" source="ZRSunYi8uTQ0CrSBALGP-45" target="ZRSunYi8uTQ0CrSBALGP-53">
          <mxGeometry relative="1" as="geometry">
            <Array as="points">
              <mxPoint x="-644" y="2051" />
            </Array>
          </mxGeometry>
        </mxCell>
        <mxCell id="ZRSunYi8uTQ0CrSBALGP-45" value="&lt;font style=&quot;font-size: 18px;&quot;&gt;&lt;b&gt;&lt;br&gt;&lt;br&gt;Create Services&lt;/b&gt;&lt;/font&gt;" style="rounded=1;whiteSpace=wrap;html=1;arcSize=10;" vertex="1" parent="1">
          <mxGeometry x="-768" y="2051" width="242" height="178" as="geometry" />
        </mxCell>
        <mxCell id="ZRSunYi8uTQ0CrSBALGP-46" value="" style="endArrow=none;html=1;rounded=0;" edge="1" parent="1">
          <mxGeometry width="50" height="50" relative="1" as="geometry">
            <mxPoint x="-768" y="2109" as="sourcePoint" />
            <mxPoint x="-768" y="2108" as="targetPoint" />
            <Array as="points">
              <mxPoint x="-525" y="2110" />
            </Array>
          </mxGeometry>
        </mxCell>
        <mxCell id="ZRSunYi8uTQ0CrSBALGP-47" value="&lt;b&gt;&lt;font style=&quot;font-size: 18px;&quot;&gt;3&lt;/font&gt;&lt;/b&gt;" style="text;html=1;strokeColor=none;fillColor=none;align=center;verticalAlign=middle;whiteSpace=wrap;rounded=0;" vertex="1" parent="1">
          <mxGeometry x="-677" y="2065" width="60" height="30" as="geometry" />
        </mxCell>
        <mxCell id="ZRSunYi8uTQ0CrSBALGP-49" value="Create new&amp;nbsp; Service" style="text;html=1;strokeColor=none;fillColor=none;align=center;verticalAlign=middle;whiteSpace=wrap;rounded=0;" vertex="1" parent="1">
          <mxGeometry x="-1084" y="2167" width="135" height="30" as="geometry" />
        </mxCell>
        <mxCell id="ZRSunYi8uTQ0CrSBALGP-52" value="View and modify services" style="text;html=1;strokeColor=none;fillColor=none;align=center;verticalAlign=middle;whiteSpace=wrap;rounded=0;" vertex="1" parent="1">
          <mxGeometry x="-1070" y="2113" width="135" height="30" as="geometry" />
        </mxCell>
        <mxCell id="ZRSunYi8uTQ0CrSBALGP-82" style="edgeStyle=orthogonalEdgeStyle;rounded=0;orthogonalLoop=1;jettySize=auto;html=1;entryX=0;entryY=0.25;entryDx=0;entryDy=0;" edge="1" parent="1" source="ZRSunYi8uTQ0CrSBALGP-53" target="ZRSunYi8uTQ0CrSBALGP-79">
          <mxGeometry relative="1" as="geometry">
            <mxPoint x="30" y="1898" as="targetPoint" />
            <Array as="points">
              <mxPoint x="-275" y="1884" />
            </Array>
          </mxGeometry>
        </mxCell>
        <mxCell id="ZRSunYi8uTQ0CrSBALGP-53" value="&lt;b&gt;&lt;font face=&quot;Verdana&quot;&gt;Services&lt;/font&gt;&lt;/b&gt;" style="rounded=0;whiteSpace=wrap;html=1;" vertex="1" parent="1">
          <mxGeometry x="-712" y="1864" width="136" height="68" as="geometry" />
        </mxCell>
        <mxCell id="ZRSunYi8uTQ0CrSBALGP-58" value="Service detials" style="text;html=1;strokeColor=none;fillColor=none;align=center;verticalAlign=middle;whiteSpace=wrap;rounded=0;" vertex="1" parent="1">
          <mxGeometry x="-639" y="1969" width="135" height="30" as="geometry" />
        </mxCell>
        <mxCell id="ZRSunYi8uTQ0CrSBALGP-61" style="edgeStyle=orthogonalEdgeStyle;rounded=0;orthogonalLoop=1;jettySize=auto;html=1;" edge="1" parent="1" source="ZRSunYi8uTQ0CrSBALGP-60" target="ZRSunYi8uTQ0CrSBALGP-25">
          <mxGeometry relative="1" as="geometry">
            <Array as="points">
              <mxPoint x="-431" y="1685" />
              <mxPoint x="-431" y="1685" />
            </Array>
          </mxGeometry>
        </mxCell>
        <mxCell id="ZRSunYi8uTQ0CrSBALGP-64" style="edgeStyle=orthogonalEdgeStyle;rounded=0;orthogonalLoop=1;jettySize=auto;html=1;" edge="1" parent="1" source="ZRSunYi8uTQ0CrSBALGP-60" target="ZRSunYi8uTQ0CrSBALGP-34">
          <mxGeometry relative="1" as="geometry">
            <Array as="points">
              <mxPoint x="-215" y="1685" />
              <mxPoint x="-215" y="1685" />
            </Array>
          </mxGeometry>
        </mxCell>
        <mxCell id="ZRSunYi8uTQ0CrSBALGP-60" value="" style="html=1;dashed=0;whiteSpace=wrap;shape=mxgraph.dfd.dataStoreID;align=left;spacingLeft=3;points=[[0,0],[0.5,0],[1,0],[0,0.5],[1,0.5],[0,1],[0.5,1],[1,1]];" vertex="1" parent="1">
          <mxGeometry x="-393" y="1674" width="161" height="47" as="geometry" />
        </mxCell>
        <mxCell id="ZRSunYi8uTQ0CrSBALGP-63" value="Service P Login" style="text;html=1;strokeColor=none;fillColor=none;align=center;verticalAlign=middle;whiteSpace=wrap;rounded=0;" vertex="1" parent="1">
          <mxGeometry x="-526" y="1654" width="135" height="30" as="geometry" />
        </mxCell>
        <mxCell id="ZRSunYi8uTQ0CrSBALGP-66" value="Service User Details" style="text;html=1;strokeColor=none;fillColor=none;align=center;verticalAlign=middle;whiteSpace=wrap;rounded=0;" vertex="1" parent="1">
          <mxGeometry x="-283" y="1644" width="135" height="30" as="geometry" />
        </mxCell>
        <mxCell id="ZRSunYi8uTQ0CrSBALGP-67" value="Service P Details" style="text;html=1;strokeColor=none;fillColor=none;align=center;verticalAlign=middle;whiteSpace=wrap;rounded=0;" vertex="1" parent="1">
          <mxGeometry x="-363" y="1682.5" width="135" height="30" as="geometry" />
        </mxCell>
        <mxCell id="ZRSunYi8uTQ0CrSBALGP-71" style="edgeStyle=orthogonalEdgeStyle;rounded=0;orthogonalLoop=1;jettySize=auto;html=1;entryX=1;entryY=0.25;entryDx=0;entryDy=0;" edge="1" parent="1" source="ZRSunYi8uTQ0CrSBALGP-69" target="ZRSunYi8uTQ0CrSBALGP-25">
          <mxGeometry relative="1" as="geometry">
            <Array as="points">
              <mxPoint x="-330" y="1467" />
              <mxPoint x="-330" y="1622" />
              <mxPoint x="-512" y="1622" />
            </Array>
          </mxGeometry>
        </mxCell>
        <mxCell id="ZRSunYi8uTQ0CrSBALGP-86" style="edgeStyle=orthogonalEdgeStyle;rounded=0;orthogonalLoop=1;jettySize=auto;html=1;exitX=1;exitY=0.25;exitDx=0;exitDy=0;entryX=0.75;entryY=0;entryDx=0;entryDy=0;" edge="1" parent="1" source="ZRSunYi8uTQ0CrSBALGP-69" target="ZRSunYi8uTQ0CrSBALGP-79">
          <mxGeometry relative="1" as="geometry" />
        </mxCell>
        <mxCell id="ZRSunYi8uTQ0CrSBALGP-69" value="&lt;b&gt;&lt;font face=&quot;Verdana&quot;&gt;Travelers&lt;/font&gt;&lt;/b&gt;" style="rounded=0;whiteSpace=wrap;html=1;" vertex="1" parent="1">
          <mxGeometry x="-17" y="1433" width="136" height="68" as="geometry" />
        </mxCell>
        <mxCell id="ZRSunYi8uTQ0CrSBALGP-73" value="Traveler Login" style="text;html=1;strokeColor=none;fillColor=none;align=center;verticalAlign=middle;whiteSpace=wrap;rounded=0;" vertex="1" parent="1">
          <mxGeometry x="-518" y="1712.5" width="135" height="30" as="geometry" />
        </mxCell>
        <mxCell id="ZRSunYi8uTQ0CrSBALGP-74" value="Traveler Details" style="text;html=1;strokeColor=none;fillColor=none;align=center;verticalAlign=middle;whiteSpace=wrap;rounded=0;" vertex="1" parent="1">
          <mxGeometry x="-289" y="1628" width="135" height="30" as="geometry" />
        </mxCell>
        <mxCell id="ZRSunYi8uTQ0CrSBALGP-84" style="edgeStyle=orthogonalEdgeStyle;rounded=0;orthogonalLoop=1;jettySize=auto;html=1;exitX=0;exitY=0.5;exitDx=0;exitDy=0;entryX=1;entryY=0.75;entryDx=0;entryDy=0;" edge="1" parent="1" source="ZRSunYi8uTQ0CrSBALGP-79" target="ZRSunYi8uTQ0CrSBALGP-53">
          <mxGeometry relative="1" as="geometry">
            <Array as="points">
              <mxPoint x="26" y="1915" />
            </Array>
          </mxGeometry>
        </mxCell>
        <mxCell id="ZRSunYi8uTQ0CrSBALGP-88" style="edgeStyle=orthogonalEdgeStyle;rounded=0;orthogonalLoop=1;jettySize=auto;html=1;exitX=0.5;exitY=0;exitDx=0;exitDy=0;entryX=1;entryY=0.5;entryDx=0;entryDy=0;" edge="1" parent="1" source="ZRSunYi8uTQ0CrSBALGP-79" target="ZRSunYi8uTQ0CrSBALGP-69">
          <mxGeometry relative="1" as="geometry" />
        </mxCell>
        <mxCell id="ZRSunYi8uTQ0CrSBALGP-91" style="edgeStyle=orthogonalEdgeStyle;rounded=0;orthogonalLoop=1;jettySize=auto;html=1;exitX=0;exitY=0.75;exitDx=0;exitDy=0;entryX=0.5;entryY=0;entryDx=0;entryDy=0;" edge="1" parent="1" source="ZRSunYi8uTQ0CrSBALGP-79" target="ZRSunYi8uTQ0CrSBALGP-24">
          <mxGeometry relative="1" as="geometry" />
        </mxCell>
        <mxCell id="ZRSunYi8uTQ0CrSBALGP-79" value="&lt;font style=&quot;font-size: 18px;&quot;&gt;&lt;b&gt;&lt;br&gt;&lt;br&gt;Reservation&lt;/b&gt;&lt;/font&gt;" style="rounded=1;whiteSpace=wrap;html=1;arcSize=10;" vertex="1" parent="1">
          <mxGeometry x="25.5" y="1840" width="242" height="178" as="geometry" />
        </mxCell>
        <mxCell id="ZRSunYi8uTQ0CrSBALGP-80" value="" style="endArrow=none;html=1;rounded=0;" edge="1" parent="1">
          <mxGeometry width="50" height="50" relative="1" as="geometry">
            <mxPoint x="25" y="1909" as="sourcePoint" />
            <mxPoint x="25" y="1908" as="targetPoint" />
            <Array as="points">
              <mxPoint x="268" y="1910" />
            </Array>
          </mxGeometry>
        </mxCell>
        <mxCell id="ZRSunYi8uTQ0CrSBALGP-81" value="&lt;b&gt;&lt;font style=&quot;font-size: 18px;&quot;&gt;4&lt;/font&gt;&lt;/b&gt;" style="text;html=1;strokeColor=none;fillColor=none;align=center;verticalAlign=middle;whiteSpace=wrap;rounded=0;" vertex="1" parent="1">
          <mxGeometry x="126.5" y="1864" width="60" height="30" as="geometry" />
        </mxCell>
        <mxCell id="ZRSunYi8uTQ0CrSBALGP-83" value="Services detials" style="text;html=1;strokeColor=none;fillColor=none;align=center;verticalAlign=middle;whiteSpace=wrap;rounded=0;" vertex="1" parent="1">
          <mxGeometry x="-352" y="1854" width="135" height="30" as="geometry" />
        </mxCell>
        <mxCell id="ZRSunYi8uTQ0CrSBALGP-85" value="Reserved Services detials" style="text;html=1;strokeColor=none;fillColor=none;align=center;verticalAlign=middle;whiteSpace=wrap;rounded=0;" vertex="1" parent="1">
          <mxGeometry x="-336" y="1917" width="135" height="30" as="geometry" />
        </mxCell>
        <mxCell id="ZRSunYi8uTQ0CrSBALGP-87" value="Make reservations" style="text;html=1;strokeColor=none;fillColor=none;align=center;verticalAlign=middle;whiteSpace=wrap;rounded=0;" vertex="1" parent="1">
          <mxGeometry x="217" y="1568" width="135" height="30" as="geometry" />
        </mxCell>
        <mxCell id="ZRSunYi8uTQ0CrSBALGP-89" value="Reservation confirmation" style="text;html=1;strokeColor=none;fillColor=none;align=center;verticalAlign=middle;whiteSpace=wrap;rounded=0;" vertex="1" parent="1">
          <mxGeometry x="61" y="1533" width="135" height="30" as="geometry" />
        </mxCell>
        <mxCell id="ZRSunYi8uTQ0CrSBALGP-92" value="Reserved Services detials" style="text;html=1;strokeColor=none;fillColor=none;align=center;verticalAlign=middle;whiteSpace=wrap;rounded=0;" vertex="1" parent="1">
          <mxGeometry x="-304" y="1980" width="135" height="30" as="geometry" />
        </mxCell>
        <mxCell id="ZRSunYi8uTQ0CrSBALGP-93" value="" style="html=1;dashed=0;whiteSpace=wrap;shape=mxgraph.dfd.dataStoreID;align=left;spacingLeft=3;points=[[0,0],[0.5,0],[1,0],[0,0.5],[1,0.5],[0,1],[0.5,1],[1,1]];" vertex="1" parent="1">
          <mxGeometry x="-120" y="1883" width="100" height="30" as="geometry" />
        </mxCell>
        <mxCell id="ZRSunYi8uTQ0CrSBALGP-94" value="Reservation details" style="text;html=1;strokeColor=none;fillColor=none;align=center;verticalAlign=middle;whiteSpace=wrap;rounded=0;" vertex="1" parent="1">
          <mxGeometry x="-109.5" y="1883" width="135" height="30" as="geometry" />
        </mxCell>
      </root>
    </mxGraphModel>
  </diagram>
</mxfile>
